<svg width="30" height="30" viewBox="0 0 30 30" fill="none" xmlns="http://www.w3.org/2000/svg">
<g id="Frame 14">
<g id="shipping">
<path id="Vector" d="M14.9219 7.84521V23.0726" stroke="#0052CC" stroke-width="1.38431" stroke-linecap="round" stroke-linejoin="round"/>
<path id="Vector_2" d="M18.3813 10.6143H13.1901C12.5476 10.6143 11.9314 10.8695 11.4771 11.3238C11.0228 11.7781 10.7676 12.3943 10.7676 13.0368C10.7676 13.6793 11.0228 14.2955 11.4771 14.7498C11.9314 15.2041 12.5476 15.4593 13.1901 15.4593H16.6509C17.2934 15.4593 17.9096 15.7146 18.3639 16.1689C18.8182 16.6232 19.0734 17.2394 19.0734 17.8819C19.0734 18.5244 18.8182 19.1405 18.3639 19.5949C17.9096 20.0492 17.2934 20.3044 16.6509 20.3044H10.7676" stroke="#0052CC" stroke-width="1.38431" stroke-linecap="round" stroke-linejoin="round"/>
<path id="Vector_3" d="M21.4898 3.69092V7.84384H17.3369" stroke="#0052CC" stroke-width="1.38431" stroke-linecap="round" stroke-linejoin="round"/>
<path id="Vector_4" d="M8 7.15128C8.35104 6.15928 8.94765 5.27237 9.73417 4.5733C10.5207 3.87424 11.4715 3.38581 12.4978 3.15358C13.5242 2.92136 14.5926 2.95292 15.6034 3.2453C16.6143 3.53769 17.5346 4.08138 18.2785 4.82565L21.4901 7.84344" stroke="#0052CC" stroke-width="1.38431" stroke-linecap="round" stroke-linejoin="round"/>
<path id="Vector_5" d="M8 26.5333V22.3804H12.1529" stroke="#0052CC" stroke-width="1.38431" stroke-linecap="round" stroke-linejoin="round"/>
<path id="Vector_6" d="M8 22.3804L11.2116 25.3982C11.9555 26.1424 12.8758 26.6861 13.8866 26.9785C14.8975 27.2709 15.9659 27.3024 16.9923 27.0702C18.0186 26.838 18.9694 26.3496 19.7559 25.6505C20.5424 24.9514 21.139 24.0645 21.4901 23.0725" stroke="#0052CC" stroke-width="1.38431" stroke-linecap="round" stroke-linejoin="round"/>
</g>
</g>
</svg>
