<svg viewBox="0 0 305 302" fill="none" xmlns="http://www.w3.org/2000/svg">
	<g id="Group 25">
		<g id="Ellipse 38" filter="url(#filter0_d_103_69)">
			<ellipse cx="152.5" cy="147" rx="148.5" ry="147" fill="#0052CC" />
		</g>
		<path id="whats" class="icon-whatsapp" d="M108.5 67.5L126.5 109L123.5 113L109 129.5C107.5 131 108 132.5 109 134.5C127.406 164.976 141.725 176.672 172.5 190.5C174.895 191.529 176.898 191.551 178.5 190.5C178.5 190.5 193 171 194.5 169.5C196 168 198.5 167 201.5 168C204.5 169 244.031 185.84 244.5 190.5C240.506 215.363 232.873 224.554 209 232H191.5C139.5 221.5 75.1119 169.061 63.5 109V96.5C67.9543 78.7947 73.6375 71.636 88.5 63C95 61.5 105 61.5 108.5 67.5Z" fill="#F7F7FA" />
		<path id="Vector 114" d="M18 283.5L32 232C45.1516 249.632 53.9486 257.885 72 270L18 283.5Z" fill="#0052CC" />
	</g>
	<defs>
		<filter id="filter0_d_103_69" x="0" y="0" width="305" height="302" filterUnits="userSpaceOnUse" color-interpolation-filters="sRGB">
			<feFlood flood-opacity="0" result="BackgroundImageFix" />
			<feColorMatrix in="SourceAlpha" type="matrix" values="0 0 0 0 0 0 0 0 0 0 0 0 0 0 0 0 0 0 127 0" result="hardAlpha" />
			<feOffset dy="4" />
			<feGaussianBlur stdDeviation="2" />
			<feComposite in2="hardAlpha" operator="out" />
			<feColorMatrix type="matrix" values="0 0 0 0 0 0 0 0 0 0 0 0 0 0 0 0 0 0 0.25 0" />
			<feBlend mode="normal" in2="BackgroundImageFix" result="effect1_dropShadow_103_69" />
			<feBlend mode="normal" in="SourceGraphic" in2="effect1_dropShadow_103_69" result="shape" />
		</filter>
	</defs>
</svg>
