<svg width="297" height="294" viewBox="0 0 297 294" fill="none" xmlns="http://www.w3.org/2000/svg">
<g id="Group 25">
<path id="Exclude" fill-rule="evenodd" clip-rule="evenodd" d="M148.5 294C230.514 294 297 228.186 297 147C297 65.8141 230.514 0 148.5 0C66.4857 0 0 65.8141 0 147C0 228.186 66.4857 294 148.5 294ZM122.5 109L104.5 67.5C101 61.5 91 61.5 84.5 63C69.6375 71.636 63.9543 78.7947 59.5 96.5V109C71.1119 169.061 135.5 221.5 187.5 232H205C228.873 224.554 236.506 215.363 240.5 190.5C240.031 185.84 200.5 169 197.5 168C194.5 167 192 168 190.5 169.5C189 171 174.5 190.5 174.5 190.5C172.898 191.551 170.895 191.529 168.5 190.5C137.725 176.672 123.406 164.976 105 134.5C104 132.5 103.5 131 105 129.5L119.5 113L122.5 109Z" fill="#003799"/>
<path id="Vector 114" d="M14 283.5L28 232C41.1516 249.632 49.9486 257.885 68 270L14 283.5Z" fill="#003799" stroke="#003799"/>
</g>
</svg>
