<svg width="34" height="24" viewBox="0 0 34 24" fill="none" xmlns="http://www.w3.org/2000/svg">
<g id="brl">
<mask id="mask0_65_44" style="mask-type:alpha" maskUnits="userSpaceOnUse" x="0" y="0" width="34" height="24">
<rect id="Rectangle 16" width="34" height="24" rx="10" fill="#666566"/>
</mask>
<g mask="url(#mask0_65_44)">
<g id="Group 18">
<rect id="Rectangle 484" x="-11" y="-2" width="55.2502" height="28.9603" fill="#009C3B"/>
<path id="Vector 111" d="M16.6481 26.9835L-6.11963 13.2631L16.6481 -1.63147L39.4848 13.2631L16.6481 26.9835Z" fill="#FFCC00" stroke="#FFCC00" stroke-width="0.0460418"/>
<ellipse id="Ellipse 30" cx="16.6017" cy="13.0557" rx="9.92202" ry="9.89899" fill="#003399"/>
<path id="Vector 112" d="M7.0022 10.3163C14.6221 9.21126 21.1601 11.6285 26.1556 15.7492L26.4549 14.2528C20.4004 9.74074 15.9479 8.35761 7.64678 8.84292L7.0022 10.3163Z" fill="white" stroke="#FFCC00" stroke-width="0.0460418"/>
<path id="Vector 77" d="M8.46368 11.3065L8.61953 10.8457L8.77313 11.3099L9.27094 11.3144L8.8718 11.5991L9.02092 12.0678L8.61953 11.7853L8.21814 12.0689L8.3695 11.5991L7.96924 11.3144L8.46368 11.3065Z" fill="#FFCC00"/>
<path id="Vector 85" d="M12.6075 13.3325L12.7633 12.8717L12.9169 13.3359L13.4147 13.3404L13.0156 13.6251L13.1647 14.0938L12.7633 13.8113L12.3619 14.0949L12.5133 13.6251L12.113 13.3404L12.6075 13.3325Z" fill="#FFCC00"/>
<path id="Vector 86" d="M16.4747 14.5756L16.6305 14.1147L16.7841 14.5789L17.2819 14.5834L16.8828 14.8682L17.0319 15.3368L16.6305 15.0543L16.2291 15.338L16.3805 14.8682L15.9802 14.5834L16.4747 14.5756Z" fill="#FFCC00"/>
<path id="Vector 87" d="M17.4879 15.5424L17.6437 15.0815L17.7973 15.5457L18.2951 15.5502L17.896 15.835L18.0451 16.3036L17.6437 16.0211L17.2423 16.3048L17.3937 15.835L16.9934 15.5502L17.4879 15.5424Z" fill="#FFCC00"/>
<path id="Vector 88" d="M15.1859 15.5424L15.3417 15.0815L15.4953 15.5457L15.9931 15.5502L15.594 15.835L15.7431 16.3036L15.3417 16.0211L14.9403 16.3048L15.0917 15.835L14.6914 15.5502L15.1859 15.5424Z" fill="#FFCC00"/>
<path id="Vector 89" d="M16.4747 17.5222L16.6305 17.0614L16.7841 17.5256L17.2819 17.5301L16.8828 17.8148L17.0319 18.2835L16.6305 18.001L16.2291 18.2846L16.3805 17.8148L15.9802 17.5301L16.4747 17.5222Z" fill="#FFCC00"/>
<path id="Vector 90" d="M19.3755 19.8245L19.5314 19.3636L19.685 19.8278L20.1828 19.8323L19.7837 20.1171L19.9328 20.5857L19.5314 20.3032L19.13 20.5869L19.2814 20.1171L18.8811 19.8323L19.3755 19.8245Z" fill="#FFCC00"/>
<path id="Vector 91" d="M21.4473 20.423L21.6032 19.9622L21.7568 20.4263L22.2546 20.4308L21.8554 20.7156L22.0046 21.1843L21.6032 20.9017L21.2018 21.1854L21.3531 20.7156L20.9529 20.4308L21.4473 20.423Z" fill="#FFCC00"/>
<path id="Vector 92" d="M23.4276 16.2792L23.5834 15.8184L23.737 16.2825L24.2348 16.287L23.8357 16.5718L23.9848 17.0405L23.5834 16.7579L23.182 17.0416L23.3334 16.5718L22.9331 16.287L23.4276 16.2792Z" fill="#FFCC00"/>
<path id="Vector 93" d="M19.5596 9.41882L19.7155 8.95801L19.8691 9.42218L20.3669 9.42667L19.9677 9.71145L20.1169 10.1801L19.7155 9.89757L19.3141 10.1812L19.4655 9.71145L19.0652 9.42667L19.5596 9.41882Z" fill="#FFCC00"/>
<path id="Vector 94" d="M23.4276 18.1207L23.5834 17.6599L23.737 18.1241L24.2348 18.1286L23.8357 18.4134L23.9848 18.882L23.5834 18.5995L23.182 18.8831L23.3334 18.4134L22.9331 18.1286L23.4276 18.1207Z" fill="#FFCC00"/>
<path id="Vector 95" d="M12.3311 18.397L12.487 17.9362L12.6406 18.4003L13.1384 18.4048L12.7392 18.6896L12.8883 19.1583L12.487 18.8757L12.0856 19.1594L12.2369 18.6896L11.8367 18.4048L12.3311 18.397Z" fill="#FFCC00"/>
<path id="Vector 96" d="M8.2796 16.2792L8.43545 15.8184L8.58905 16.2825L9.08686 16.287L8.68772 16.5718L8.83684 17.0405L8.43545 16.7579L8.03406 17.0416L8.18542 16.5718L7.78516 16.287L8.2796 16.2792Z" fill="#FFCC00"/>
<path id="Vector 97" d="M11.1805 16.2792L11.3363 15.8184L11.4899 16.2825L11.9877 16.287L11.5886 16.5718L11.7377 17.0405L11.3363 16.7579L10.9349 17.0416L11.0863 16.5718L10.686 16.287L11.1805 16.2792Z" fill="#FFCC00"/>
<path id="Vector 98" d="M9.24616 15.3583L9.402 14.8975L9.5556 15.3616L10.0534 15.3661L9.65427 15.6509L9.80339 16.1196L9.402 15.837L9.00061 16.1207L9.15197 15.6509L8.75171 15.3661L9.24616 15.3583Z" fill="#FFCC00"/>
<path id="Vector 99" d="M10.2275 14.8375L10.3006 14.6212L10.3727 14.8391L10.6064 14.8412L10.4191 14.9749L10.4891 15.1949L10.3006 15.0623L10.1122 15.1954L10.1833 14.9749L9.99536 14.8412L10.2275 14.8375Z" fill="#FFCC00"/>
<path id="Vector 100" d="M10.964 17.4618L11.0372 17.2455L11.1093 17.4634L11.343 17.4655L11.1556 17.5992L11.2256 17.8192L11.0372 17.6866L10.8488 17.8197L10.9198 17.5992L10.7319 17.4655L10.964 17.4618Z" fill="#FFCC00"/>
<path id="Vector 101" d="M16.0283 16.2647L16.1014 16.0483L16.1735 16.2662L16.4072 16.2683L16.2198 16.402L16.2898 16.622L16.1014 16.4894L15.913 16.6226L15.984 16.402L15.7961 16.2683L16.0283 16.2647Z" fill="#FFCC00"/>
<path id="Vector 102" d="M16.6271 20.8692L16.7003 20.6528L16.7724 20.8707L17.0061 20.8728L16.8187 21.0065L16.8887 21.2265L16.7003 21.0939L16.5119 21.2271L16.5829 21.0065L16.395 20.8728L16.6271 20.8692Z" fill="#FFCC00"/>
<path id="Vector 103" d="M20.3579 18.9338L20.4461 18.673L20.5331 18.9357L20.8148 18.9382L20.5889 19.0994L20.6733 19.3646L20.4461 19.2047L20.219 19.3652L20.3046 19.0994L20.0781 18.9382L20.3579 18.9338Z" fill="#FFCC00"/>
<path id="Vector 108" d="M18.8843 12.3495L18.9725 12.0887L19.0594 12.3514L19.3412 12.354L19.1153 12.5151L19.1997 12.7804L18.9725 12.6205L18.7454 12.781L18.831 12.5151L18.6045 12.354L18.8843 12.3495Z" fill="#FFCC00"/>
<path id="Vector 104" d="M18.6087 18.6114L18.6969 18.3506L18.7838 18.6133L19.0655 18.6158L18.8396 18.777L18.924 19.0422L18.6969 18.8823L18.4697 19.0428L18.5554 18.777L18.3289 18.6158L18.6087 18.6114Z" fill="#FFCC00"/>
<path id="Vector 105" d="M21.5093 18.6114L21.5975 18.3506L21.6844 18.6133L21.9662 18.6158L21.7403 18.777L21.8247 19.0422L21.5975 18.8823L21.3704 19.0428L21.456 18.777L21.2295 18.6158L21.5093 18.6114Z" fill="#FFCC00"/>
<path id="Vector 106" d="M22.5223 18.6114L22.6104 18.3506L22.6974 18.6133L22.9791 18.6158L22.7532 18.777L22.8376 19.0422L22.6104 18.8823L22.3833 19.0428L22.469 18.777L22.2424 18.6158L22.5223 18.6114Z" fill="#FFCC00"/>
<path id="Vector 109" d="M23.857 17.4142L23.9452 17.1534L24.0321 17.4161L24.3138 17.4187L24.0879 17.5798L24.1723 17.8451L23.9452 17.6852L23.718 17.8457L23.8037 17.5798L23.5771 17.4187L23.857 17.4142Z" fill="#FFCC00"/>
<path id="Vector 110" d="M24.9624 16.5857L25.0506 16.325L25.1376 16.5876L25.4193 16.5902L25.1934 16.7513L25.2778 17.0166L25.0506 16.8567L24.8235 17.0172L24.9091 16.7513L24.6826 16.5902L24.9624 16.5857Z" fill="#FFCC00"/>
<path id="Vector 107" d="M21.5093 19.5323L21.5975 19.2715L21.6844 19.5342L21.9662 19.5367L21.7403 19.6979L21.8247 19.9631L21.5975 19.8032L21.3704 19.9637L21.456 19.6979L21.2295 19.5367L21.5093 19.5323Z" fill="#FFCC00"/>
</g>
</g>
</g>
</svg>
