<svg width="34" height="24" viewBox="0 0 34 24" fill="none" xmlns="http://www.w3.org/2000/svg">
<g id="gbp">
<mask id="mask0_45_1141" style="mask-type:alpha" maskUnits="userSpaceOnUse" x="0" y="0" width="34" height="24">
<rect id="Rectangle 16" width="34" height="24" rx="10" fill="#666566"/>
</mask>
<g mask="url(#mask0_45_1141)">
<g id="Group 15">
<rect id="Rectangle 481" x="-5" y="-2" width="44" height="28.9922" fill="#003399"/>
<path id="Vector 72" d="M7.90671 7.06578L8.31955 5.84509L8.72644 7.07469L10.0451 7.08657L8.9878 7.84096L9.38282 9.08243L8.31955 8.33398L7.25627 9.0854L7.65723 7.84096L6.59692 7.08657L7.90671 7.06578Z" fill="#FFCC00"/>
<path id="Vector 73" d="M11.6587 3.65489L12.0715 2.4342L12.4784 3.6638L13.7971 3.67568L12.7398 4.43007L13.1348 5.67154L12.0715 4.92309L11.0082 5.67451L11.4092 4.43007L10.3489 3.67568L11.6587 3.65489Z" fill="#FFCC00"/>
<path id="Vector 74" d="M16.4338 2.11998L16.8466 0.899292L17.2535 2.12889L18.5722 2.14077L17.5149 2.89516L17.9099 4.13663L16.8466 3.38818L15.7834 4.1396L16.1843 2.89516L15.124 2.14077L16.4338 2.11998Z" fill="#FFCC00"/>
<path id="Vector 75" d="M21.209 3.65489L21.6218 2.4342L22.0287 3.6638L23.3474 3.67568L22.29 4.43007L22.6851 5.67154L21.6218 4.92309L20.5585 5.67451L20.9595 4.43007L19.8992 3.67568L21.209 3.65489Z" fill="#FFCC00"/>
<path id="Vector 76" d="M24.6198 7.06578L25.0327 5.84509L25.4396 7.07469L26.7583 7.08657L25.7009 7.84096L26.096 9.08243L25.0327 8.33398L23.9694 9.0854L24.3704 7.84096L23.3101 7.08657L24.6198 7.06578Z" fill="#FFCC00"/>
<path id="Vector 77" d="M25.9843 11.8409L26.3972 10.6202L26.8041 11.8498L28.1228 11.8617L27.0654 12.6161L27.4605 13.8576L26.3972 13.1091L25.3339 13.8605L25.7349 12.6161L24.6746 11.8617L25.9843 11.8409Z" fill="#FFCC00"/>
<path id="Vector 78" d="M24.6198 16.6162L25.0327 15.3955L25.4396 16.6251L26.7583 16.637L25.7009 17.3914L26.096 18.6328L25.0327 17.8844L23.9694 18.6358L24.3704 17.3914L23.3101 16.637L24.6198 16.6162Z" fill="#FFCC00"/>
<path id="Vector 79" d="M21.209 20.3681L21.6218 19.1475L22.0287 20.3771L23.3474 20.3889L22.29 21.1433L22.6851 22.3848L21.6218 21.6364L20.5585 22.3878L20.9595 21.1433L19.8992 20.3889L21.209 20.3681Z" fill="#FFCC00"/>
<path id="Vector 80" d="M16.4338 21.562L16.8466 20.3413L17.2535 21.5709L18.5722 21.5828L17.5149 22.3372L17.9099 23.5786L16.8466 22.8302L15.7834 23.5816L16.1843 22.3372L15.124 21.5828L16.4338 21.562Z" fill="#FFCC00"/>
<path id="Vector 81" d="M11.6587 20.3681L12.0715 19.1475L12.4784 20.3771L13.7971 20.3889L12.7398 21.1433L13.1348 22.3848L12.0715 21.6364L11.0082 22.3878L11.4092 21.1433L10.3489 20.3889L11.6587 20.3681Z" fill="#FFCC00"/>
<path id="Vector 82" d="M7.90671 16.6162L8.31955 15.3955L8.72644 16.6251L10.0451 16.637L8.9878 17.3914L9.38282 18.6328L8.31955 17.8844L7.25627 18.6358L7.65723 17.3914L6.59692 16.637L7.90671 16.6162Z" fill="#FFCC00"/>
<path id="Vector 83" d="M6.71286 11.8409L7.1257 10.6202L7.53259 11.8498L8.85129 11.8617L7.79396 12.6161L8.18897 13.8576L7.1257 13.1091L6.06242 13.8605L6.46338 12.6161L5.40308 11.8617L6.71286 11.8409Z" fill="#FFCC00"/>
</g>
</g>
</g>
</svg>
