<svg width="34" height="24" viewBox="0 0 34 24" fill="none" xmlns="http://www.w3.org/2000/svg">
<g id="usd">
<mask id="mask0_45_988" style="mask-type:alpha" maskUnits="userSpaceOnUse" x="0" y="0" width="34" height="24">
<rect id="Rectangle 15" width="34" height="24" rx="10" fill="#666566"/>
</mask>
<g mask="url(#mask0_45_988)">
<g id="Group 13">
<rect id="Rectangle 462" width="45.1579" height="26" fill="#620F0F"/>
<rect id="Rectangle 461" width="21.8947" height="13.6842" fill="#00016C"/>
<path id="Vector 19" d="M1.73844 1.19947L1.91279 0.68396L2.08462 1.20323L2.64152 1.20825L2.195 1.52684L2.36182 2.05113L1.91279 1.73505L1.46375 2.05238L1.63308 1.52684L1.1853 1.20825L1.73844 1.19947Z" fill="#F7F7FA"/>
<path id="Vector 52" d="M6.02677 1.19947L6.20112 0.68396L6.37295 1.20323L6.92985 1.20825L6.48333 1.52684L6.65015 2.05113L6.20112 1.73505L5.75208 2.05238L5.92141 1.52684L5.47363 1.20825L6.02677 1.19947Z" fill="#F7F7FA"/>
<path id="Vector 56" d="M6.02677 3.93653L6.20112 3.42102L6.37295 3.94029L6.92985 3.94531L6.48333 4.2639L6.65015 4.78819L6.20112 4.47211L5.75208 4.78944L5.92141 4.2639L5.47363 3.94531L6.02677 3.93653Z" fill="#F7F7FA"/>
<path id="Vector 60" d="M6.02677 6.67335L6.20112 6.15784L6.37295 6.67711L6.92985 6.68213L6.48333 7.00071L6.65015 7.525L6.20112 7.20892L5.75208 7.52626L5.92141 7.00071L5.47363 6.68213L6.02677 6.67335Z" fill="#F7F7FA"/>
<path id="Vector 64" d="M6.02677 9.41016L6.20112 8.89465L6.37295 9.41393L6.92985 9.41894L6.48333 9.73753L6.65015 10.2618L6.20112 9.94574L5.75208 10.2631L5.92141 9.73753L5.47363 9.41894L6.02677 9.41016Z" fill="#F7F7FA"/>
<path id="Vector 68" d="M6.02677 12.1472L6.20112 11.6317L6.37295 12.151L6.92985 12.156L6.48333 12.4746L6.65015 12.9989L6.20112 12.6828L5.75208 13.0001L5.92141 12.4746L5.47363 12.156L6.02677 12.1472Z" fill="#F7F7FA"/>
<path id="Vector 53" d="M10.132 1.19947L10.3063 0.68396L10.4782 1.20323L11.0351 1.20825L10.5886 1.52684L10.7554 2.05113L10.3063 1.73505L9.85731 2.05238L10.0266 1.52684L9.57886 1.20825L10.132 1.19947Z" fill="#F7F7FA"/>
<path id="Vector 57" d="M10.132 3.93653L10.3063 3.42102L10.4782 3.94029L11.0351 3.94531L10.5886 4.2639L10.7554 4.78819L10.3063 4.47211L9.85731 4.78944L10.0266 4.2639L9.57886 3.94531L10.132 3.93653Z" fill="#F7F7FA"/>
<path id="Vector 61" d="M10.132 6.67335L10.3063 6.15784L10.4782 6.67711L11.0351 6.68213L10.5886 7.00071L10.7554 7.525L10.3063 7.20892L9.85731 7.52626L10.0266 7.00071L9.57886 6.68213L10.132 6.67335Z" fill="#F7F7FA"/>
<path id="Vector 65" d="M10.132 9.41016L10.3063 8.89465L10.4782 9.41393L11.0351 9.41894L10.5886 9.73753L10.7554 10.2618L10.3063 9.94574L9.85731 10.2631L10.0266 9.73753L9.57886 9.41894L10.132 9.41016Z" fill="#F7F7FA"/>
<path id="Vector 69" d="M10.132 12.1472L10.3063 11.6317L10.4782 12.151L11.0351 12.156L10.5886 12.4746L10.7554 12.9989L10.3063 12.6828L9.85731 13.0001L10.0266 12.4746L9.57886 12.156L10.132 12.1472Z" fill="#F7F7FA"/>
<path id="Vector 54" d="M14.2375 1.19947L14.4118 0.68396L14.5836 1.20323L15.1405 1.20825L14.694 1.52684L14.8608 2.05113L14.4118 1.73505L13.9628 2.05238L14.1321 1.52684L13.6843 1.20825L14.2375 1.19947Z" fill="#F7F7FA"/>
<path id="Vector 58" d="M14.2375 3.93653L14.4118 3.42102L14.5836 3.94029L15.1405 3.94531L14.694 4.2639L14.8608 4.78819L14.4118 4.47211L13.9628 4.78944L14.1321 4.2639L13.6843 3.94531L14.2375 3.93653Z" fill="#F7F7FA"/>
<path id="Vector 62" d="M14.2375 6.67335L14.4118 6.15784L14.5836 6.67711L15.1405 6.68213L14.694 7.00071L14.8608 7.525L14.4118 7.20892L13.9628 7.52626L14.1321 7.00071L13.6843 6.68213L14.2375 6.67335Z" fill="#F7F7FA"/>
<path id="Vector 66" d="M14.2375 9.41016L14.4118 8.89465L14.5836 9.41393L15.1405 9.41894L14.694 9.73753L14.8608 10.2618L14.4118 9.94574L13.9628 10.2631L14.1321 9.73753L13.6843 9.41894L14.2375 9.41016Z" fill="#F7F7FA"/>
<path id="Vector 70" d="M14.2375 12.1472L14.4118 11.6317L14.5836 12.151L15.1405 12.156L14.694 12.4746L14.8608 12.9989L14.4118 12.6828L13.9628 13.0001L14.1321 12.4746L13.6843 12.156L14.2375 12.1472Z" fill="#F7F7FA"/>
<path id="Vector 55" d="M18.3427 1.19947L18.517 0.68396L18.6889 1.20323L19.2458 1.20825L18.7992 1.52684L18.9661 2.05113L18.517 1.73505L18.068 2.05238L18.2373 1.52684L17.7896 1.20825L18.3427 1.19947Z" fill="#F7F7FA"/>
<path id="Vector 59" d="M18.3427 3.93653L18.517 3.42102L18.6889 3.94029L19.2458 3.94531L18.7992 4.2639L18.9661 4.78819L18.517 4.47211L18.068 4.78944L18.2373 4.2639L17.7896 3.94531L18.3427 3.93653Z" fill="#F7F7FA"/>
<path id="Vector 63" d="M18.3427 6.67335L18.517 6.15784L18.6889 6.67711L19.2458 6.68213L18.7992 7.00071L18.9661 7.525L18.517 7.20892L18.068 7.52626L18.2373 7.00071L17.7896 6.68213L18.3427 6.67335Z" fill="#F7F7FA"/>
<path id="Vector 67" d="M18.3427 9.41016L18.517 8.89465L18.6889 9.41393L19.2458 9.41894L18.7992 9.73753L18.9661 10.2618L18.517 9.94574L18.068 10.2631L18.2373 9.73753L17.7896 9.41894L18.3427 9.41016Z" fill="#F7F7FA"/>
<path id="Vector 71" d="M18.3427 12.1472L18.517 11.6317L18.6889 12.151L19.2458 12.156L18.7992 12.4746L18.9661 12.9989L18.517 12.6828L18.068 13.0001L18.2373 12.4746L17.7896 12.156L18.3427 12.1472Z" fill="#F7F7FA"/>
<path id="Vector 28" d="M3.97379 2.568L4.14814 2.05249L4.31997 2.57176L4.87688 2.57678L4.43035 2.89537L4.59717 3.41966L4.14814 3.10358L3.6991 3.42091L3.86843 2.89537L3.42065 2.57678L3.97379 2.568Z" fill="#F7F7FA"/>
<path id="Vector 37" d="M3.97379 5.30482L4.14814 4.78931L4.31997 5.30858L4.87688 5.3136L4.43035 5.63218L4.59717 6.15647L4.14814 5.84039L3.6991 6.15773L3.86843 5.63218L3.42065 5.3136L3.97379 5.30482Z" fill="#F7F7FA"/>
<path id="Vector 42" d="M3.97379 8.04188L4.14814 7.52637L4.31997 8.04564L4.87688 8.05066L4.43035 8.36924L4.59717 8.89353L4.14814 8.57746L3.6991 8.89479L3.86843 8.36924L3.42065 8.05066L3.97379 8.04188Z" fill="#F7F7FA"/>
<path id="Vector 47" d="M3.97379 10.7783L4.14814 10.2628L4.31997 10.7821L4.87688 10.7871L4.43035 11.1057L4.59717 11.63L4.14814 11.3139L3.6991 11.6312L3.86843 11.1057L3.42065 10.7871L3.97379 10.7783Z" fill="#F7F7FA"/>
<path id="Vector 30" d="M8.07926 2.568L8.25361 2.05249L8.42544 2.57176L8.98234 2.57678L8.53582 2.89537L8.70264 3.41966L8.25361 3.10358L7.80457 3.42091L7.9739 2.89537L7.52612 2.57678L8.07926 2.568Z" fill="#F7F7FA"/>
<path id="Vector 38" d="M8.07926 5.30482L8.25361 4.78931L8.42544 5.30858L8.98234 5.3136L8.53582 5.63218L8.70264 6.15647L8.25361 5.84039L7.80457 6.15773L7.9739 5.63218L7.52612 5.3136L8.07926 5.30482Z" fill="#F7F7FA"/>
<path id="Vector 43" d="M8.07926 8.04188L8.25361 7.52637L8.42544 8.04564L8.98234 8.05066L8.53582 8.36924L8.70264 8.89353L8.25361 8.57746L7.80457 8.89479L7.9739 8.36924L7.52612 8.05066L8.07926 8.04188Z" fill="#F7F7FA"/>
<path id="Vector 48" d="M8.07926 10.7783L8.25361 10.2628L8.42544 10.7821L8.98234 10.7871L8.53582 11.1057L8.70264 11.63L8.25361 11.3139L7.80457 11.6312L7.9739 11.1057L7.52612 10.7871L8.07926 10.7783Z" fill="#F7F7FA"/>
<path id="Vector 32" d="M12.1845 2.568L12.3588 2.05249L12.5307 2.57176L13.0876 2.57678L12.641 2.89537L12.8079 3.41966L12.3588 3.10358L11.9098 3.42091L12.0791 2.89537L11.6313 2.57678L12.1845 2.568Z" fill="#F7F7FA"/>
<path id="Vector 39" d="M12.1845 5.30482L12.3588 4.78931L12.5307 5.30858L13.0876 5.3136L12.641 5.63218L12.8079 6.15647L12.3588 5.84039L11.9098 6.15773L12.0791 5.63218L11.6313 5.3136L12.1845 5.30482Z" fill="#F7F7FA"/>
<path id="Vector 44" d="M12.1845 8.04188L12.3588 7.52637L12.5307 8.04564L13.0876 8.05066L12.641 8.36924L12.8079 8.89353L12.3588 8.57746L11.9098 8.89479L12.0791 8.36924L11.6313 8.05066L12.1845 8.04188Z" fill="#F7F7FA"/>
<path id="Vector 49" d="M12.1845 10.7783L12.3588 10.2628L12.5307 10.7821L13.0876 10.7871L12.641 11.1057L12.8079 11.63L12.3588 11.3139L11.9098 11.6312L12.0791 11.1057L11.6313 10.7871L12.1845 10.7783Z" fill="#F7F7FA"/>
<path id="Vector 34" d="M16.29 2.568L16.4643 2.05249L16.6361 2.57176L17.193 2.57678L16.7465 2.89537L16.9133 3.41966L16.4643 3.10358L16.0153 3.42091L16.1846 2.89537L15.7368 2.57678L16.29 2.568Z" fill="#F7F7FA"/>
<path id="Vector 40" d="M16.29 5.30482L16.4643 4.78931L16.6361 5.30858L17.193 5.3136L16.7465 5.63218L16.9133 6.15647L16.4643 5.84039L16.0153 6.15773L16.1846 5.63218L15.7368 5.3136L16.29 5.30482Z" fill="#F7F7FA"/>
<path id="Vector 45" d="M16.29 8.04188L16.4643 7.52637L16.6361 8.04564L17.193 8.05066L16.7465 8.36924L16.9133 8.89353L16.4643 8.57746L16.0153 8.89479L16.1846 8.36924L15.7368 8.05066L16.29 8.04188Z" fill="#F7F7FA"/>
<path id="Vector 50" d="M16.29 10.7783L16.4643 10.2628L16.6361 10.7821L17.193 10.7871L16.7465 11.1057L16.9133 11.63L16.4643 11.3139L16.0153 11.6312L16.1846 11.1057L15.7368 10.7871L16.29 10.7783Z" fill="#F7F7FA"/>
<path id="Vector 36" d="M20.3952 2.568L20.5695 2.05249L20.7414 2.57176L21.2983 2.57678L20.8517 2.89537L21.0186 3.41966L20.5695 3.10358L20.1205 3.42091L20.2898 2.89537L19.842 2.57678L20.3952 2.568Z" fill="#F7F7FA"/>
<path id="Vector 41" d="M20.3952 5.30482L20.5695 4.78931L20.7414 5.30858L21.2983 5.3136L20.8517 5.63218L21.0186 6.15647L20.5695 5.84039L20.1205 6.15773L20.2898 5.63218L19.842 5.3136L20.3952 5.30482Z" fill="#F7F7FA"/>
<path id="Vector 46" d="M20.3952 8.04188L20.5695 7.52637L20.7414 8.04564L21.2983 8.05066L20.8517 8.36924L21.0186 8.89353L20.5695 8.57746L20.1205 8.89479L20.2898 8.36924L19.842 8.05066L20.3952 8.04188Z" fill="#F7F7FA"/>
<path id="Vector 51" d="M20.3952 10.7783L20.5695 10.2628L20.7414 10.7821L21.2983 10.7871L20.8517 11.1057L21.0186 11.63L20.5695 11.3139L20.1205 11.6312L20.2898 11.1057L19.842 10.7871L20.3952 10.7783Z" fill="#F7F7FA"/>
<path id="Vector 21" d="M1.73844 3.93653L1.91279 3.42102L2.08462 3.94029L2.64152 3.94531L2.195 4.2639L2.36182 4.78819L1.91279 4.47211L1.46375 4.78944L1.63308 4.2639L1.1853 3.94531L1.73844 3.93653Z" fill="#F7F7FA"/>
<path id="Vector 23" d="M1.73844 6.67335L1.91279 6.15784L2.08462 6.67711L2.64152 6.68213L2.195 7.00071L2.36182 7.525L1.91279 7.20892L1.46375 7.52626L1.63308 7.00071L1.1853 6.68213L1.73844 6.67335Z" fill="#F7F7FA"/>
<path id="Vector 25" d="M1.73844 9.41016L1.91279 8.89465L2.08462 9.41393L2.64152 9.41894L2.195 9.73753L2.36182 10.2618L1.91279 9.94574L1.46375 10.2631L1.63308 9.73753L1.1853 9.41894L1.73844 9.41016Z" fill="#F7F7FA"/>
<path id="Vector 35" d="M1.9213 12.1472L2.09565 11.6317L2.26748 12.151L2.82438 12.156L2.37786 12.4746L2.54468 12.9989L2.09565 12.6828L1.64661 13.0001L1.81594 12.4746L1.36816 12.156L1.9213 12.1472Z" fill="#F7F7FA"/>
<rect id="Rectangle 464" x="21.8945" y="1.36829" width="23.2632" height="1.36842" fill="white"/>
<rect id="Rectangle 466" x="21.8945" y="4.10535" width="23.2632" height="1.36842" fill="white"/>
<rect id="Rectangle 468" x="21.8945" y="6.84216" width="23.2632" height="1.36842" fill="white"/>
<rect id="Rectangle 470" x="21.8945" y="9.57886" width="23.2632" height="1.36842" fill="white"/>
<rect id="Rectangle 472" x="21.8945" y="12.3157" width="23.2632" height="1.36842" fill="white"/>
<rect id="Rectangle 474" y="15.0525" width="45.1579" height="1.36842" fill="white"/>
<rect id="Rectangle 476" y="17.7893" width="45.1579" height="1.36842" fill="white"/>
<rect id="Rectangle 478" y="20.5264" width="45.1579" height="1.36842" fill="white"/>
<rect id="Rectangle 480" y="23.2632" width="45.1579" height="1.36842" fill="white"/>
</g>
</g>
</g>
</svg>
