<svg width="534" height="430" viewBox="0 0 534 430" fill="none" xmlns="http://www.w3.org/2000/svg">
<g id="pc">
<path id="Rectangle 439" d="M0 15C0 6.71574 6.71573 0 15 0H519C527.284 0 534 6.71573 534 15V323H0V15Z" fill="#767576"/>
<rect id="tela-pc" x="17" y="17" width="501" height="289" fill="url(#paint0_linear_67_83)"/>
<path id="Rectangle 441" d="M0 323H534V358C534 366.284 527.284 373 519 373H15C6.71573 373 0 366.284 0 358V323Z" fill="#555456"/>
<path id="Vector 16" d="M207 409.223L211 372.5H323.5L328.5 409.223C329 417.437 341.5 426.134 348 426.134V430H187V426.134C196 426.134 207 415.504 207 409.223Z" fill="url(#paint1_linear_67_83)"/>
<path id="z-pc-nome" d="M195 213H220.2L195 237H220.2M247.799 213H225V225M247.799 237H225V225M247.799 225H225M271.199 225H253.799M271.199 225C277.799 225 277.799 213.001 272.399 213C266.999 213 253.799 213 253.799 213V225M271.199 225C277.799 225 277.799 237 271.199 237C264.599 237 253.799 237 253.799 237V225M280.199 237V213C280.199 213 293.399 213 298.799 213C304.199 213 304.799 214.201 304.799 217.2C304.799 220.2 304.799 220.8 304.799 223.2C304.799 225.6 301.199 226.8 297.599 226.8M280.199 226.8H297.599M297.599 226.8L305.399 237M310.199 237L313.904 229.2M338.998 237L335.398 229.8M313.904 229.2L321.599 213H326.998L335.398 229.8M313.904 229.2L335.398 229.8" stroke="#01070F" stroke-width="2.39997"/>
<path id="z-pc" d="M203 99H289V120.611V121.142V143.284L203 163.478H289V185H203V163.478V141.336L289 121.142V120.611H203V99Z" fill="#00050C"/>
</g>
<defs>
<linearGradient id="paint0_linear_67_83" x1="78.5" y1="61.5" x2="439" y2="283" gradientUnits="userSpaceOnUse">
<stop stop-color="#454446"/>
<stop offset="1" stop-color="#7071B5"/>
</linearGradient>
<linearGradient id="paint1_linear_67_83" x1="267.5" y1="372.5" x2="267.5" y2="430" gradientUnits="userSpaceOnUse">
<stop stop-color="#454446"/>
<stop offset="1" stop-color="#767576"/>
</linearGradient>
</defs>
</svg>
