<svg width="297" height="240" viewBox="0 0 297 240" fill="none" xmlns="http://www.w3.org/2000/svg">
	<g id="Group 21">
		<path id="Rectangle 439" d="M0 8.3427C0 3.73516 3.73515 0 8.3427 0H288.657C293.265 0 297 3.73515 297 8.3427V179.646H0V8.3427Z" fill="#767576" />
		<rect id="tela-pc" x="9" y="9" width="278.646" height="160.736" fill="url(#paint0_linear_74_11)" />
		<path id="Rectangle 441" d="M0 179.646H297V199.112C297 203.72 293.265 207.455 288.657 207.455H8.34268C3.73513 207.455 0 203.72 0 199.112V179.646Z" fill="#555456" />
		<path id="Vector 16" d="M115.129 227.601L117.354 207.177H179.924L182.705 227.601C182.983 232.17 189.935 237.007 193.551 237.007V239.157H104.006V237.007C109.011 237.007 115.129 231.095 115.129 227.601Z" fill="url(#paint1_linear_74_11)" />
		<g id="Group 20">
			<path id="z-pc-nome" class="z-nome-pc" d="M109 114.405H123.016L109 127.753H123.016M138.366 114.405H125.685V121.079M138.366 127.753H125.685V121.079M138.366 121.079H125.685M151.38 121.079H141.703M151.38 121.079C155.051 121.079 155.051 114.405 152.048 114.405C149.044 114.404 141.703 114.405 141.703 114.405V121.079M151.38 121.079C155.051 121.079 155.051 127.753 151.38 127.753C147.71 127.753 141.703 127.753 141.703 127.753V121.079M156.386 127.753V114.405C156.386 114.405 163.727 114.405 166.731 114.405C169.734 114.405 170.068 115.072 170.068 116.74C170.068 118.409 170.068 118.742 170.068 120.077C170.068 121.413 168.066 122.08 166.063 122.08M156.386 122.08H166.063M166.063 122.08L170.402 127.753M173.071 127.753L175.132 123.415M189.089 127.753L187.087 123.748M175.132 123.415L179.412 114.405H182.415L187.087 123.748M175.132 123.415L187.087 123.748" stroke="#01070F" stroke-width="1.33482" />
			<path id="z-pc" class="z-logo-pc-svg" d="M126 51H173.831V63.0194V63.315V75.63L126 86.8613H173.831V98.8315H126V86.8613V74.5463L173.831 63.315V63.0194H126V51Z" fill="#00050C" />
		</g>
	</g>
	<defs>
		<linearGradient id="paint0_linear_74_11" x1="43.2051" y1="33.75" x2="243.708" y2="156.944" gradientUnits="userSpaceOnUse">
			<stop stop-color="#454446" />
			<stop offset="1" stop-color="#7071B5" />
		</linearGradient>
		<linearGradient id="paint1_linear_74_11" x1="148.778" y1="207.177" x2="148.778" y2="239.157" gradientUnits="userSpaceOnUse">
			<stop stop-color="#454446" />
			<stop offset="1" stop-color="#767576" />
		</linearGradient>
	</defs>
</svg>
