<svg width="811" height="383" viewBox="0 0 811 383" fill="none" xmlns="http://www.w3.org/2000/svg">
<g id="Frame 13">
<g id="logo-zebra">
<path id="libra" d="M140.902 302.495C140.902 292.163 98.5182 280.693 100.308 324.541V330.602M143.343 364.404C139.601 366.187 137.451 366.64 133.337 364.404C121.459 359.092 114.396 358.21 100.308 364.404V358.221C106.491 346.588 100.308 343.09 100.308 336.663V330.602M100.308 330.602H132.442M100.308 330.602H89" stroke="#8D6313" stroke-width="8.62329"/>
<path id="euro" d="M145.097 217.997C139.483 195.951 105.234 192.453 97.262 217.102M97.262 217.102C92.5117 235.325 97.262 245.819 97.262 245.819C107.43 271.771 141.761 264.774 145.097 243.948M97.262 217.102C37.1475 217.102 111.774 217.102 118.255 217.102M97.262 241.164C37.1475 241.164 111.774 241.164 118.255 241.164" stroke="#8D6313" stroke-width="8.62329"/>
<path id="dolar" d="M129.269 31.6258C129.269 16.657 99.6572 13.2403 92.5795 26.7447C88.6995 34.1477 92.5795 40.1677 92.5795 40.1677C101.122 48.6283 124.795 49.3605 129.269 59.6108C131.534 70.6844 128.946 74.9661 117.88 79.3793C99.088 82.4886 93.4531 78.8657 89 66.2816M110.314 6V88.4094" stroke="#8D6313" stroke-width="8.62329"/>
<g id="real">
<path id="Vector 6" d="M556.663 148.317C556.663 134.584 529.497 131.45 523.004 143.839C519.444 150.63 523.004 156.153 523.004 156.153C530.84 163.915 552.558 164.586 556.663 173.99C558.74 184.149 556.366 188.077 546.214 192.125C528.975 194.978 523.805 191.654 519.72 180.11M539.274 124.808V200.409" stroke="#603E00" stroke-width="7.91094"/>
<path id="Vector 7" d="M463 200.111V168.094M463 168.094V133.465H490.987C507.779 133.465 507.854 168.094 490.987 168.094H487.255M463 168.094H487.255M505.54 200.111L487.255 168.094" stroke="#603E00" stroke-width="7.91094"/>
</g>
<path id="logo-z" d="M194 6H565V99.2276V101.52V197.04L194 284.154H565V377H194V284.154V188.634L565 101.52V99.2276H194V6Z" fill="#00050C"/>
</g>
</g>
</svg>
