<svg width="124" height="22" viewBox="0 0 124 22" fill="none" xmlns="http://www.w3.org/2000/svg">
<path id="zebra-page" d="M3 1.00015H24L3 21.0002H24M47 1.00015H28V11.0002M47 21.0002H28V11.0002M47 11.0002H28M66.5 11.0002H52M66.5 11.0002C72 11.0002 72 1.0005 67.5 1.00015C63 0.999806 52 1.00015 52 1.00015V11.0002M66.5 11.0002C72 11.0002 72 21.0001 66.5 21.0002C61 21.0002 52 21.0002 52 21.0002V11.0002M74 21.0002V1.00015C74 1.00015 85 1.00015 89.5 1.00015C94 1.00015 94.5 2.00049 94.5 4.50016C94.5 6.99982 94.5 7.49982 94.5 9.50016C94.5 11.5005 91.5 12.5002 88.5 12.5002M74 12.5002H88.5M88.5 12.5002L95 21.0002M99 21.0002L102.088 14.5002M123 21.0002L120 15.0002M102.088 14.5002L108.5 1.00015H113L120 15.0002M102.088 14.5002L120 15.0002" stroke="#00060D" stroke-width="2"/>
</svg>
