<svg viewBox="0 0 655 118" fill="none" xmlns="http://www.w3.org/2000/svg">
	<path id="zebra" class="zebra" d="M14 6.00082H125.299L14 112H125.299M247.198 6.00082H146.499V59.0004M247.198 112H146.499V59.0004M247.198 59.0004H146.499M350.547 59.0004H273.698M350.547 59.0004C379.697 59.0004 379.697 6.00267 355.847 6.00082C331.997 5.99897 273.698 6.00082 273.698 6.00082V59.0004M350.547 59.0004C379.697 59.0004 379.697 112 350.547 112C321.398 112 273.698 112 273.698 112V59.0004M390.297 112V6.00082C390.297 6.00082 448.596 6.00082 472.446 6.00082C496.296 6.00082 498.946 11.3025 498.946 24.5507C498.946 37.7988 498.946 40.4488 498.946 51.0505C498.946 61.6521 483.046 66.9503 467.146 66.9503M390.297 66.9503H467.146M467.146 66.9503L501.596 112M522.796 112L539.159 77.5502M649.995 112L634.095 80.2002M539.159 77.5502L573.145 6.00082H596.995L634.095 80.2002M539.159 77.5502L634.095 80.2002" stroke="#00060D" stroke-width="10.5999" />
</svg>
